<svg xmlns="http://www.w3.org/2000/svg" viewBox="0 0 120 120" aria-hidden="true">
  <path d="M77.6 95.4c-7.8 6.2-17.2 9.2-28.1 9.2-10.1 0-18.2-2.5-24.3-7.5-6.1-5.1-9.1-11.7-9.1-19.8 0-6.1 1.9-11.6 5.7-16.5 3.8-4.9 9.8-9.7 18-14.4-3.8-4.8-6.4-8.9-7.8-12.4-1.5-3.5-2.2-7-2.2-10.5 0-7.3 2.6-13.1 7.9-17.4C42.9 1.8 49.6-.4 57.9-.4c7.6 0 13.8 2 18.6 6.1 4.8 4 7.2 9.3 7.2 15.8 0 5.2-1.7 9.9-5.1 14.1-3.3 4.1-8.7 8.4-16.2 12.8l16.2 19.1c2.8-5.4 4.5-11.7 5.2-18.8h16.4c-1.1 12.8-4.5 23.5-10.1 32.1l15.3 18.1H84.9l-7.3-3.5ZM51 89.1c5.5 0 10.6-1.7 15.3-5.1L49.4 64.2l-1.7 1.1c-7.7 5.5-11.5 11.4-11.5 17.7 0 4.8 1.4 8.5 4.1 11.2 2.8 2.7 6.3 4.1 10.7 4.1ZM47.4 23.2c0 4.1 2.3 9 6.9 14.8l4.5-2.8c5.5-3.5 8.2-7.7 8.2-12.5 0-2.8-.9-5.1-2.6-6.8-1.7-1.8-4-2.7-6.8-2.7-3.1 0-5.6.9-7.4 2.8-1.9 1.9-2.8 4.3-2.8 7.2Z" fill="#A2060E"/>
</svg>
